<?xml version="1.0" standalone="no"?>
<!DOCTYPE svg PUBLIC "-//W3C//DTD SVG 20010904//EN"
 "http://www.w3.org/TR/2001/REC-SVG-20010904/DTD/svg10.dtd">
<svg version="1.0" xmlns="http://www.w3.org/2000/svg"
 width="46" height="47" viewBox="0 0 523.000000 523.000000"
 preserveAspectRatio="xMidYMid meet">

<g transform="translate(0.000000,523.000000) scale(0.100000,-0.100000)"
fill="#ffffff" stroke="none">
<path d="M1193 4185 c-36 -15 -70 -63 -79 -112 -13 -71 47 -155 122 -169 51
-9 122 21 151 65 34 50 32 129 -3 171 -50 59 -121 76 -191 45z"/>
<path d="M3854 4186 c-42 -18 -76 -69 -82 -121 -6 -59 27 -118 83 -145 51 -25
78 -25 131 -1 54 24 84 74 84 136 0 108 -112 176 -216 131z"/>
<path d="M855 4040 c-22 -25 -13 -66 18 -76 29 -10 48 -6 64 14 41 55 -36 113
-82 62z"/>
<path d="M4251 4046 c-18 -21 -9 -66 14 -82 29 -19 69 2 73 39 4 36 -13 57
-48 57 -15 0 -33 -6 -39 -14z"/>
<path d="M1383 3817 c-31 -29 -37 -41 -40 -88 -5 -66 17 -107 70 -132 44 -21
80 -21 124 0 53 25 75 66 70 132 -3 47 -9 59 -40 88 -32 29 -43 33 -92 33 -49
0 -60 -4 -92 -33z"/>
<path d="M3628 3830 c-31 -24 -58 -78 -58 -115 0 -68 70 -135 141 -135 61 0
122 53 135 119 8 41 -29 117 -67 136 -41 22 -121 19 -151 -5z"/>
<path d="M1032 3820 c-55 -34 -77 -112 -47 -170 44 -86 160 -104 225 -35 18
19 25 40 28 85 4 59 4 61 -36 100 -35 36 -45 40 -88 40 -31 0 -61 -7 -82 -20z"/>
<path d="M4002 3820 c-64 -39 -80 -144 -30 -197 50 -54 104 -65 165 -36 96 45
98 189 3 238 -40 21 -99 19 -138 -5z"/>
<path d="M1621 3552 c-37 -20 -71 -73 -71 -110 0 -68 56 -132 123 -139 85 -10
147 47 147 135 0 104 -105 164 -199 114z"/>
<path d="M3424 3551 c-57 -35 -79 -113 -49 -174 62 -127 255 -82 255 58 0 105
-116 171 -206 116z"/>
<path d="M1253 3480 c-88 -53 -81 -180 12 -224 65 -31 138 -5 170 61 55 114
-73 230 -182 163z"/>
<path d="M3799 3483 c-85 -53 -75 -191 17 -229 86 -36 174 22 174 114 0 52
-24 97 -62 118 -32 18 -98 17 -129 -3z"/>
<path d="M891 3424 c-28 -36 -27 -79 4 -109 50 -51 135 -17 135 54 0 51 -29
81 -80 81 -30 0 -43 -6 -59 -26z"/>
<path d="M4181 3433 c-12 -10 -24 -35 -27 -55 -15 -93 121 -124 155 -35 13 32
-3 83 -29 97 -29 15 -76 12 -99 -7z"/>
<path d="M1829 3211 c-24 -25 -29 -38 -29 -79 0 -44 4 -54 31 -76 42 -36 103
-35 144 1 26 23 30 33 30 75 0 43 -4 53 -33 79 -45 41 -102 41 -143 0z"/>
<path d="M3209 3211 c-24 -24 -29 -38 -29 -76 0 -71 49 -113 120 -106 95 10
123 146 40 194 -45 27 -97 22 -131 -12z"/>
<path d="M1444 3186 c-28 -28 -34 -41 -34 -77 0 -52 29 -105 66 -119 103 -40
201 42 173 144 -15 54 -60 86 -121 86 -44 0 -54 -4 -84 -34z"/>
<path d="M3564 3184 c-27 -28 -34 -44 -34 -75 0 -79 47 -129 123 -129 115 0
164 140 76 214 -24 20 -41 26 -81 26 -45 0 -54 -4 -84 -36z"/>
<path d="M1119 3192 c-8 -4 -28 -17 -44 -30 -25 -19 -29 -32 -33 -81 -4 -55
-2 -61 29 -96 104 -113 282 21 203 153 -29 50 -104 76 -155 54z"/>
<path d="M3953 3180 c-44 -26 -67 -73 -60 -123 7 -54 35 -89 85 -107 114 -40
215 84 152 187 -37 61 -116 81 -177 43z"/>
<path d="M2046 2889 c-35 -41 -34 -83 3 -120 66 -66 171 -11 150 79 -10 47
-41 72 -89 72 -30 0 -44 -6 -64 -31z"/>
<path d="M3027 2913 c-22 -6 -47 -53 -47 -88 0 -16 12 -38 29 -56 37 -37 79
-38 120 -3 25 20 31 34 31 63 0 70 -55 104 -133 84z"/>
<path d="M1704 2900 c-36 -14 -64 -59 -64 -101 0 -54 41 -98 96 -106 36 -5 45
-1 77 27 32 27 37 38 37 74 0 81 -74 135 -146 106z"/>
<path d="M3393 2895 c-74 -32 -82 -137 -14 -182 40 -27 71 -29 111 -8 30 16
60 61 60 90 0 35 -32 84 -65 99 -40 19 -51 19 -92 1z"/>
<path d="M1299 2841 c-56 -57 -29 -163 46 -177 48 -9 82 2 112 34 22 23 24 34
20 76 -6 66 -39 96 -103 96 -37 0 -51 -6 -75 -29z"/>
<path d="M3738 2841 c-28 -25 -33 -36 -33 -76 0 -40 5 -51 33 -76 44 -40 99
-40 143 -1 27 24 32 36 33 76 1 42 -3 51 -32 77 -45 40 -99 40 -144 0z"/>
<path d="M975 2820 c-29 -11 -53 -41 -55 -70 -4 -45 0 -60 20 -80 23 -23 95
-27 122 -6 23 17 39 62 32 91 -12 47 -76 82 -119 65z"/>
<path d="M4143 2815 c-55 -24 -71 -90 -32 -139 17 -22 28 -26 69 -26 41 0 52
4 69 26 39 50 23 116 -34 140 -40 16 -32 17 -72 -1z"/>
<path d="M4693 2774 c-95 -34 -162 -160 -134 -254 l12 -40 -137 -187 c-76
-104 -175 -240 -221 -304 l-83 -116 -51 -6 c-45 -6 -55 -3 -81 18 -37 31 -68
39 -115 30 -46 -8 -93 -57 -93 -95 0 -16 -7 -30 -16 -34 -15 -6 -276 -70 -469
-115 -49 -12 -137 -32 -195 -46 -69 -16 -108 -21 -114 -15 -18 18 -56 11 -81
-14 -17 -17 -55 -32 -129 -50 -58 -14 -107 -26 -109 -26 -2 0 -2 23 1 50 4 43
1 55 -18 75 -33 36 -101 35 -137 -1 -22 -22 -25 -32 -21 -75 4 -42 3 -49 -11
-45 -9 3 -56 15 -106 26 -65 15 -96 28 -113 45 -24 26 -60 33 -78 15 -10 -10
-110 12 -634 138 l-154 37 -9 38 c-23 96 -145 127 -216 55 l-30 -31 -98 23
c-54 12 -244 58 -423 101 -179 43 -331 79 -337 79 -10 0 -13 -121 -13 -574 l0
-573 43 -11 c23 -7 71 -18 107 -26 36 -8 175 -42 310 -75 135 -32 315 -76 400
-96 85 -20 200 -48 255 -61 55 -13 186 -44 290 -69 105 -24 204 -48 220 -54
17 -5 84 -21 150 -36 66 -15 208 -49 316 -76 108 -27 206 -49 218 -49 12 0
133 27 269 60 136 33 362 87 502 121 487 117 796 191 1035 249 132 32 283 68
335 80 52 12 112 26 133 31 l37 10 0 574 c0 454 -3 575 -12 575 -7 0 -101 -22
-208 -48 -107 -27 -196 -45 -198 -41 -3 6 100 156 219 319 42 58 56 70 78 70
75 0 150 49 186 120 51 101 17 230 -46 178 -8 -7 -27 -30 -43 -50 -22 -31 -33
-38 -60 -38 -69 0 -87 71 -36 142 35 47 35 51 14 72 -19 19 -46 19 -101 0z"/>
<path d="M2231 2634 c-12 -15 -21 -34 -21 -44 0 -31 39 -70 70 -70 31 0 70 39
70 70 0 31 -39 70 -70 70 -19 0 -36 -9 -49 -26z"/>
<path d="M2859 2642 c-15 -13 -22 -30 -22 -52 0 -62 71 -92 113 -48 59 64 -23
155 -91 100z"/>
<path d="M1892 2600 c-67 -41 -78 -131 -22 -193 25 -29 34 -32 84 -32 49 0 59
4 87 31 103 103 -25 269 -149 194z"/>
<path d="M3164 2600 c-78 -50 -73 -174 7 -216 84 -43 179 16 179 111 0 98
-105 157 -186 105z"/>
<path d="M1183 2549 c-74 -21 -106 -115 -64 -185 36 -60 129 -69 183 -19 33
30 43 63 35 112 -7 43 -31 71 -74 89 -36 16 -36 16 -80 3z"/>
<path d="M3921 2547 c-50 -18 -76 -58 -75 -118 1 -67 40 -109 108 -116 53 -6
86 11 116 60 39 64 16 136 -53 168 -49 22 -51 22 -96 6z"/>
<path d="M1558 2509 c-12 -6 -18 -22 -18 -45 0 -27 5 -37 25 -46 38 -17 75 3
75 40 0 48 -43 74 -82 51z"/>
<path d="M3560 2500 c-11 -11 -20 -27 -20 -35 0 -18 35 -55 53 -55 24 0 57 31
57 55 0 24 -33 55 -57 55 -7 0 -22 -9 -33 -20z"/>
<path d="M808 2425 c-18 -39 3 -75 43 -75 52 0 77 51 41 83 -28 26 -70 22 -84
-8z"/>
<path d="M4292 2438 c-7 -7 -12 -24 -12 -38 0 -33 17 -50 50 -50 33 0 50 17
50 50 0 33 -17 50 -50 50 -14 0 -31 -5 -38 -12z"/>
<path d="M2392 2424 c-43 -30 -18 -94 37 -94 34 0 51 17 51 51 0 27 -30 59
-55 59 -6 0 -21 -7 -33 -16z"/>
<path d="M2720 2420 c-11 -11 -20 -28 -20 -38 0 -41 69 -69 98 -40 17 17 15
64 -4 82 -21 22 -50 20 -74 -4z"/>
<path d="M2099 2297 c-48 -32 -68 -91 -48 -143 36 -95 161 -112 217 -31 77
114 -55 251 -169 174z"/>
<path d="M2960 2307 c-13 -7 -35 -28 -47 -46 -81 -121 86 -256 189 -153 98 97
-19 261 -142 199z"/>
<path d="M2531 2214 c-71 -59 -9 -179 80 -157 45 11 69 43 69 90 0 86 -83 123
-149 67z"/>
<path d="M1774 2212 c-6 -4 -16 -17 -23 -30 -24 -46 28 -87 83 -66 24 9 22 80
-3 94 -23 12 -42 13 -57 2z"/>
<path d="M3352 2204 c-26 -18 -30 -65 -7 -84 38 -32 95 -4 95 46 0 22 -33 54
-55 54 -6 0 -21 -7 -33 -16z"/>
<path d="M1013 2200 c-31 -13 -63 -68 -63 -108 0 -25 9 -43 34 -68 29 -29 41
-34 81 -34 38 0 52 5 76 29 24 25 29 38 29 79 0 45 -4 53 -35 81 -37 32 -77
39 -122 21z"/>
<path d="M1393 2198 c-31 -15 -49 -62 -35 -93 37 -81 152 -61 152 26 0 55 -66
93 -117 67z"/>
<path d="M3713 2198 c-29 -14 -48 -70 -34 -97 29 -53 88 -65 126 -26 64 63
-12 164 -92 123z"/>
<path d="M4074 2201 c-36 -16 -64 -60 -64 -103 0 -32 7 -47 34 -74 29 -29 41
-34 81 -34 38 0 52 5 76 29 63 64 23 177 -66 186 -22 3 -50 1 -61 -4z"/>
<path d="M2303 1965 c-33 -33 -35 -39 -30 -81 7 -68 42 -99 108 -99 45 0 54 4
80 33 43 47 41 102 -5 148 -28 28 -42 34 -76 34 -35 0 -48 -6 -77 -35z"/>
<path d="M2737 1979 c-15 -11 -32 -37 -38 -58 -23 -77 46 -152 126 -137 85 16
116 123 54 185 -38 39 -101 43 -142 10z"/>
<path d="M1967 1902 c-38 -42 -8 -102 51 -102 34 0 52 21 52 63 0 50 -70 76
-103 39z"/>
<path d="M3127 1902 c-37 -40 -8 -102 47 -102 37 0 51 12 61 52 14 54 -70 92
-108 50z"/>
</g>
</svg>
